<svg xmlns="http://www.w3.org/2000/svg" xmlns:xlink="http://www.w3.org/1999/xlink" viewBox="0 0 187.89 216.97"><defs><style>.cls-1{fill:url(#linear-gradient);}.cls-2{fill:url(#linear-gradient-2);}.cls-3{fill:url(#linear-gradient-3);}.cls-4{fill:url(#linear-gradient-4);}.cls-5{fill:url(#linear-gradient-5);}.cls-6{fill:url(#linear-gradient-6);}.cls-7{fill:url(#linear-gradient-7);}.cls-8{fill:url(#linear-gradient-8);}.cls-9{fill:url(#linear-gradient-9);}</style><linearGradient id="linear-gradient" x1="31.99" y1="162.15" x2="155.9" y2="162.15" gradientUnits="userSpaceOnUse"><stop offset="0.55" stop-color="#489ad5"/><stop offset="1" stop-color="#6a5aa7"/></linearGradient><linearGradient id="linear-gradient-2" x1="30.99" y1="161.86" x2="156.9" y2="161.86" gradientUnits="userSpaceOnUse"><stop offset="0.6" stop-color="#489ad5"/><stop offset="1" stop-color="#6a5aa7"/></linearGradient><linearGradient id="linear-gradient-3" x1="16.48" y1="27.99" x2="171.41" y2="27.99" xlink:href="#linear-gradient"/><linearGradient id="linear-gradient-4" x1="14.48" y1="27.99" x2="173.41" y2="27.99" xlink:href="#linear-gradient-2"/><linearGradient id="linear-gradient-5" x1="1" y1="126.37" x2="186.89" y2="126.37" xlink:href="#linear-gradient"/><linearGradient id="linear-gradient-6" x1="0" y1="126.37" x2="187.89" y2="126.37" xlink:href="#linear-gradient-2"/><linearGradient id="linear-gradient-7" x1="31.99" y1="162.15" x2="93.95" y2="162.15" gradientUnits="userSpaceOnUse"><stop offset="0" stop-color="#2d86c4"/><stop offset="1" stop-color="#413476"/></linearGradient><linearGradient id="linear-gradient-8" x1="16.48" y1="27.99" x2="93.95" y2="27.99" xlink:href="#linear-gradient-7"/><linearGradient id="linear-gradient-9" x1="1" y1="126.37" x2="93.95" y2="126.37" xlink:href="#linear-gradient-7"/></defs><g id="Layer_2" data-name="Layer 2"><g id="Layer_5" data-name="Layer 5"><polygon class="cls-1" points="155.91 108.48 155.91 126.38 140.44 135.32 140.42 135.32 140.42 135.34 124.94 144.28 109.45 153.21 109.43 153.21 109.43 206.88 93.95 215.81 78.46 206.88 78.46 153.21 78.44 153.21 62.96 144.28 47.47 135.34 47.47 135.32 47.45 135.32 31.99 126.38 31.99 108.48 47.47 117.42 62.96 126.36 62.96 126.38 78.46 135.32 93.95 144.25 109.43 135.32 124.94 126.38 124.94 126.36 140.42 117.42 155.91 108.48"/><path class="cls-2" d="M155.9,108.48v17.9l-15.46,8.94h0v0l-15.48,8.93-15.49,8.94h0v53.67L94,215.81l-15.49-8.93V153.21h0L63,144.27l-15.49-8.93v0h0L32,126.38v-17.9l15.48,8.94L63,126.36v0l15.5,8.94L94,144.25l15.48-8.93,15.51-8.94v0l15.48-8.94,15.48-8.94m1-1.73-1.49.87-15.49,8.94-15.48,8.93-.5.29v0l-15,8.65L94,143.1l-15-8.65L64,125.8l-.49-.31L48,116.56l-15.48-8.94-1.5-.87V127l.5.29,15.27,8.82.21.13,15.49,8.94,15,8.66v53.65l.5.29,15.49,8.94.5.29.5-.29,15.48-8.94.5-.29V153.8l15-8.66,15.48-8.94.5-.28h0l15-8.66.49-.29V106.75Z"/><polygon class="cls-3" points="31.99 54.82 16.48 45.88 31.97 36.92 31.99 36.95 31.99 36.92 47.45 27.99 47.47 27.99 62.96 19.05 78.44 10.11 78.46 10.09 93.95 1.16 109.43 10.09 109.43 10.11 109.45 10.11 124.94 19.05 140.42 27.99 140.44 27.99 155.91 36.92 155.91 36.95 155.93 36.92 171.41 45.88 155.91 54.82 124.94 36.95 109.43 27.99 93.95 19.05 78.46 27.99 62.96 36.95 31.99 54.82"/><path class="cls-4" d="M94,1.15l15.48,8.94v0h0l15.49,8.94L140.42,28h0l15.46,8.93v0l0,0,15.48,9L155.9,54.82,124.94,37l-15.51-9L94,19.05,78.46,28,63,37,32,54.82,16.48,45.88l15.49-9,0,0v0L47.45,28h0L63,19.05l15.48-8.94,0,0L94,1.15M94,0l-.5.29L78,9.23l-.11.06,0,0L62.46,18.18,47.21,27h0l-.26.13-15.23,8.8-.25.14L16,45l-1.5.86,1.5.87,15.51,8.94L32,56l.5-.28,31-17.88,15.5-9L94,20.2l15,8.65,15.51,9,31,17.88.49.28.5-.28,15.51-8.94,1.5-.87-1.5-.86-15.48-9-.67-.39h0l-14.81-8.56-.23-.13h0l-15.25-8.81-15.3-8.82-.21-.13L94.45.29,94,0Z"/><polygon class="cls-5" points="186.89 54.82 186.89 162.15 171.41 171.09 171.41 171.11 171.39 171.11 155.93 180.04 155.91 180.04 140.42 188.98 124.94 197.92 124.94 180.04 140.42 171.11 140.44 171.09 155.91 162.17 155.91 162.15 171.41 153.21 171.41 81.67 155.93 90.61 155.91 90.61 140.44 99.55 140.42 99.55 124.94 108.48 124.94 108.5 109.45 117.44 109.43 117.44 93.95 126.38 78.46 117.44 78.44 117.44 62.96 108.5 62.96 108.48 47.47 99.55 47.45 99.55 31.99 90.61 31.97 90.61 16.48 81.67 16.48 153.21 31.99 162.15 31.99 162.17 47.45 171.09 47.47 171.11 62.96 180.04 62.96 197.92 47.47 188.98 31.99 180.04 31.97 180.04 16.5 171.11 16.48 171.11 16.48 171.09 1 162.15 1 54.82 16.48 63.76 16.48 63.78 16.5 63.78 31.97 72.72 31.99 72.72 62.96 90.59 78.46 99.55 93.95 108.48 109.43 99.55 124.94 90.59 155.91 72.72 155.93 72.72 171.39 63.78 171.41 63.78 171.41 63.76 186.89 54.82"/><path class="cls-6" d="M186.89,54.82V162.15l-15.48,8.94v0h0L155.93,180h0L140.42,189l-15.48,8.94V180l15.48-8.93,0,0,15.46-8.92v0l15.51-8.94V81.67l-15.48,8.94h0l-15.46,8.94h0l-15.48,8.93v0l-15.49,8.93h0L94,126.38l-15.49-8.94h0L63,108.51v0L47.47,99.55h0L32,90.61h0L16.48,81.67v71.54L32,162.15v0l15.46,8.92,0,0L63,180v17.88L47.47,189,32,180h0l-15.46-8.93h0v0L1,162.15V54.82l15.48,8.94v0h0L32,72.71h0L63,90.59l15.5,9L94,108.48l15.48-8.93,15.51-9,31-17.88h0l15.46-8.93h0v0l15.48-8.94m1-1.73-1.5.86-15.48,8.94-.5.29h0l-14.76,8.53-.24.13-31,17.87-15.51,9-15,8.65L79,98.68l-15.5-9-31-17.87-.23-.14h0L17.2,63,17,62.89,1.5,54,0,53.09V162.73l.5.29,15,8.64v.43h.75l15.24,8.81.23.13h0L47,189.85l15.49,8.94,1.5.86V179.47l-.5-.29-15.37-8.87h0l-.14-.09-15-8.63h0l-.5-.31-15-8.65V83.4l14,8.08.23.13h0L47,100.41l.23.14h0L62,109.06l.5.31,15.48,8.94.23.13h0l15.26,8.81.5.28.5-.28,15.25-8.81h0l.25-.13,15.49-8.94.5-.29v0l14.75-8.51h0l.25-.14,15.24-8.8.25-.13,14-8.08v69.23l-15,8.65-.51.29v0l-15,8.63-.11.07,0,0-15.37,8.87-.5.29v20.18l1.5-.86,15.48-8.94L156.17,181h0l.26-.13,15.23-8.8h.73v-.44l15-8.65.5-.29V53.09Z"/><polygon class="cls-7" points="93.95 144.25 93.95 215.81 78.46 206.88 78.46 153.21 78.44 153.21 62.96 144.28 47.47 135.34 47.47 135.32 47.45 135.32 31.99 126.38 31.99 108.48 47.47 117.42 62.96 126.36 62.96 126.38 78.46 135.32 93.95 144.25"/><polygon class="cls-8" points="93.95 1.16 93.95 19.05 78.46 27.99 62.96 36.95 31.99 54.82 16.48 45.88 31.97 36.92 31.99 36.95 31.99 36.92 47.45 27.99 47.47 27.99 62.96 19.05 78.44 10.11 78.46 10.09 93.95 1.16"/><polygon class="cls-9" points="93.95 108.48 93.95 126.38 78.46 117.44 78.44 117.44 62.96 108.5 62.96 108.48 47.47 99.55 47.45 99.55 31.99 90.61 31.97 90.61 16.48 81.67 16.48 153.21 31.99 162.15 31.99 162.17 47.45 171.09 47.47 171.11 62.96 180.04 62.96 197.92 47.47 188.98 31.99 180.04 31.97 180.04 16.5 171.11 16.48 171.11 16.48 171.09 1 162.15 1 54.82 16.48 63.76 16.48 63.78 16.5 63.78 31.97 72.72 31.99 72.72 62.96 90.59 78.46 99.55 93.95 108.48"/></g></g></svg>